{"title":"Legacy.2010.DVDRip.Xvid.AC3-THC","uid":6071951,"size":1531700189,"categoryP":"video","categoryS":"movies","magnet":"?xt=urn:btih:b3f80d74d8ee6e2784ef03b6e0b22f3f0b400c96&amp;dn=Legacy.2010.DVDRip.Xvid.AC3-THC&amp;tr=udp%3A%2F%2Ftracker.openbittorrent.com%3A80&amp;tr=udp%3A%2F%2Fopen.demonii.com%3A1337&amp;tr=udp%3A%2F%2Ftracker.coppersurfer.tk%3A6969&amp;tr=udp%3A%2F%2Fexodus.desync.com%3A6969","seeders":0,"leechers":0,"uploader":"TvTeam","files":5,"time":1293662848,"description":". \n  &lt;a href=&quot;\nhttp://www.torrentday.com/&quot; rel=&quot;nofollow&quot; target=&quot;_NEW&quot;&gt;\nhttp://www.torrentday.com/&lt;/a&gt;        :     The Hottest Private Tracker On The Net!!!\n\n\n               www . TorrentDay . Com \n(((((((((((((= Enjoy No RAR releases =))))))))))))))))))))\n\n\n...................................NFO:....................................\n\n.General\nComplete name : D:\\Legacy 2010 DVDRip Xvid AC3-THC\\Legacy 2010 DVDRip Xvid AC3-THC.avi\nFormat : AVI\nFormat/Info : Audio Video Interleave\nFormat profile : OpenDML\nFile size : 1.40 GiB\nDuration : 1h 32mn\nOverall bit rate : 2 152 Kbps\nWriting application : AVI-Mux GUI 1.17.8.3, Feb 16 201019:42:50\n\nVideo\nID : 0\nFormat : MPEG-4 Visual\nFormat profile : Advanced Simple@L5\nFormat settings, BVOP : Yes\nFormat settings, QPel : No\nFormat settings, GMC : No warppoints\nFormat settings, Matrix : Default (MPEG)\nCodec ID : XVID\nCodec ID/Hint : XviD\nDuration : 1h 32mn\nBit rate : 1 699 Kbps\nWidth : 720 pixels\nHeight : 400 pixels\nDisplay aspect ratio : 16:9\nFrame rate : 23.976 fps\nColor space : YUV\nChroma subsampling : 4:2:0\nBit depth : 8 bits\nScan type : Progressive\nCompression mode : Lossy\nBits/(Pixel*Frame) : 0.246\nStream size : 1.10 GiB (79%)\nWriting library : XviD 1.2.1 (UTC 2008-12-04)\n\nAudio\nID : 1\nFormat : AC-3\nFormat/Info : Audio Coding 3\nMode extension : CM (complete main)\nCodec ID : 2000\nDuration : 1h 32mn\nBit rate mode : Constant\nBit rate : 448 Kbps\nChannel(s) : 6 channels\nChannel positions : Front: L C R, Side: L R, LFE\nSampling rate : 48.0 KHz\nBit depth : 16 bits\nCompression mode : Lossy\nStream size : 297 MiB (21%)\nAlignment : Aligned on interleaves\nInterleave, duration : 64 ms (1.53 video frames)\nInterleave, preload duration : 192 ms\nTitle : 5.1ch 448kbps english\n\nActors: Idris Elba, Eamonn Walker, Richard Brake, Mem Ferda\nLanguage: English\nRated: R (Restricted)\nStudio: Code Black Ent\nDVD Release Date: December 28, 2010\nRun Time: 95 minutes\n\nSample Included: Yes\nEncoder: Freebee269","torrent":{"xt":"urn:btih:b3f80d74d8ee6e2784ef03b6e0b22f3f0b400c96","amp;dn":"Legacy.2010.DVDRip.Xvid.AC3-THC","amp;tr":["udp%3A%2F%2Ftracker.openbittorrent.com%3A80","udp%3A%2F%2Fopen.demonii.com%3A1337","udp%3A%2F%2Ftracker.coppersurfer.tk%3A6969","udp%3A%2F%2Fexodus.desync.com%3A6969"],"infoHash":"b3f80d74d8ee6e2784ef03b6e0b22f3f0b400c96","infoHashBuffer":{"type":"Buffer","data":[179,248,13,116,216,238,110,39,132,239,3,182,224,178,47,63,11,64,12,150]},"announce":[],"urlList":[]}}